# xmcd
#
# Track frame offsets: 
#        150
#        16458
#        38257
#        58183
#        81461
#        103802
#        122551
#        157586
#        191410
#
# Disc length: 2782 seconds
#
# Revision: 0
# Processed by: cddbd v1.5.2PL0 Copyright (c) Steve Scherf et al.
# Submitted via: ExactAudioCopy v0.99pb4
#
DISCID=660adc09
DTITLE=Climax Blues Band - Blues From the Attic [CD2)
DYEAR=1993
DGENRE=Blues
TTITLE0=Towards The Sun
TTITLE1=The Movie Queen
TTITLE2=The Last Chance Saloon
TTITLE3=Sign Of The Times
TTITLE4=Couldn't Get It Right
TTITLE5=You've Got To Live For The Good Times
TTITLE6=Going To New York/Money
TTITLE7=Let's Work Together
TTITLE8=Let The Good Times Roll
EXTD=
EXTT0=
EXTT1=
EXTT2=
EXTT3=
EXTT4=
EXTT5=
EXTT6=
EXTT7=
EXTT8=
PLAYORDER=
